# xmcd
# 
# Track frame offsets:
#     150
#     16151
#     30069
#     52162
#     64788
#     78434
#     99175
#     110709
#     118408
#     134695
#     157340
# 
# Disc length: 2465
# 
# Revision: 1
# Processed by: cddbd v1.5.2PL0 Copyright (c) Steve Scherf et al.
# Submitted via: fre:ac v1.0.31
# 
DISCID=94099f0b
DTITLE=Savoy Brown - Shake Down
DYEAR=1967
DGENRE=Blues
TTITLE0=Ain't Superstitious
TTITLE1=Let Me Love You Baby
TTITLE2=Black Night
TTITLE3=High Rise
TTITLE4=Rock Me Baby
TTITLE5=I Smell Trouble
TTITLE6=Pretty Woman
TTITLE7=Little Girl
TTITLE8=The Doormouse Rides the Rails
TTITLE9=It's All My Fault
TTITLE10=Shake 'Em on Down
EXTD=
EXTT0=
EXTT1=
EXTT2=
EXTT3=
EXTT4=
EXTT5=
EXTT6=
EXTT7=
EXTT8=
EXTT9=
EXTT10=
PLAYORDER=
